# xmcd
#
# Track frame offsets:
#	150
#	11452
#	21278
#	36758
#	48710
#	67900
#	78028
#	92513
#	101815
#	114005
#	129720
#	141709
#
# Disc length: 2110 seconds
#
# Revision: 1
# Processed by: cddbd v1.5.2PL0 Copyright (c) Steve Scherf et al.
# Submitted via: audiograbber 1.83.01
#
DISCID=98083c0c
DTITLE=Noel Cassidy - Reflections Of Country And Irish
DYEAR=2002
DGENRE=
TTITLE0=Able Bodied Man
TTITLE1=The Gypsy Rover
TTITLE2=John Joe O'Reilly
TTITLE3=The Old Account
TTITLE4=John Williams
TTITLE5=I Never Really Knew You
TTITLE6=My Own Rollin' Roe
TTITLE7=The Geesha Girl
TTITLE8=I'm Just Me
TTITLE9=The Rose
TTITLE10=I'll Settle For Old Ireland
TTITLE11=Spancil Hill
EXTD=
EXTT0=
EXTT1=
EXTT2=
EXTT3=
EXTT4=
EXTT5=
EXTT6=
EXTT7=
EXTT8=
EXTT9=
EXTT10=
EXTT11=
PLAYORDER=
